<svg xmlns="http://www.w3.org/2000/svg" width="1100" height="720" viewBox="0 0 1100 720" role="img" aria-labelledby="t d">
  <title id="t">Drawing state toggle</title><desc id="d">Holding a right fist for 0.6 seconds toggles drawing off and on.</desc>
  <defs><linearGradient id="b" x1="0" y1="0" x2="1" y2="1"><stop stop-color="#27324b"/><stop offset="1" stop-color="#0c1019"/></linearGradient></defs><rect width="1100" height="720" rx="44" fill="url(#b)"/>
  <g transform="translate(70 92)"><rect width="390" height="500" rx="34" fill="#fff" fill-opacity=".07" stroke="#fff" stroke-opacity=".15"/><circle cx="58" cy="58" r="18" fill="#7f8794"/><text x="91" y="67" fill="#dce5ec" font-family="-apple-system,sans-serif" font-size="27" font-weight="700">그리기 꺼짐</text><g transform="translate(100 150)" fill="#e7aa91"><rect x="65" y="58" width="120" height="140" rx="48"/><rect x="28" y="28" width="54" height="122" rx="27" transform="rotate(-14 55 89)"/><rect x="72" y="0" width="48" height="115" rx="24"/><rect x="118" y="5" width="46" height="110" rx="23"/><rect x="162" y="20" width="43" height="100" rx="22"/></g><text x="88" y="428" fill="#aebcc7" font-family="-apple-system,sans-serif" font-size="21">손을 움직여도 점이 생기지 않음</text></g>
  <g transform="translate(640 92)"><rect width="390" height="500" rx="34" fill="#fff" fill-opacity=".07" stroke="#69dc8e" stroke-opacity=".45"/><circle cx="58" cy="58" r="18" fill="#69dc8e"/><text x="91" y="67" fill="#f1fff5" font-family="-apple-system,sans-serif" font-size="27" font-weight="700">그리기 켜짐</text><path d="M120 365 210 250 300 330" fill="none" stroke="#42c8ff" stroke-width="9" stroke-linecap="round"/><circle cx="120" cy="365" r="16" fill="#ffd14a"/><circle cx="210" cy="250" r="16" fill="#ffd14a"/><circle cx="300" cy="330" r="16" fill="#ffd14a"/><circle cx="210" cy="250" r="33" fill="none" stroke="#ff6a3d" stroke-width="7"/><text x="79" y="428" fill="#bcd5c5" font-family="-apple-system,sans-serif" font-size="21">0.8초 머무르면 점을 확정</text></g>
  <path d="M493 335h110" stroke="#8edfff" stroke-width="5" stroke-linecap="round"/><path d="m582 319 20 16-20 16" fill="none" stroke="#8edfff" stroke-width="5" stroke-linecap="round" stroke-linejoin="round"/><text x="502" y="300" fill="#8edfff" font-family="-apple-system,sans-serif" font-size="18">0.6초</text>
</svg>
