<svg xmlns="http://www.w3.org/2000/svg" width="1100" height="720" viewBox="0 0 1100 720" role="img" aria-labelledby="t d">
  <title id="t">visionOS App 템플릿 선택</title><desc id="d">Xcode 새 프로젝트 창에서 visionOS 탭과 App 템플릿이 파란색으로 강조된 화면</desc>
  <defs><linearGradient id="bg" x1="0" y1="0" x2="1" y2="1"><stop stop-color="#263654"/><stop offset="1" stop-color="#0e111c"/></linearGradient><linearGradient id="glass" x1="0" y1="0" x2="1" y2="1"><stop stop-color="#ffffff" stop-opacity=".22"/><stop offset="1" stop-color="#8adfff" stop-opacity=".07"/></linearGradient><marker id="head" viewBox="0 0 12 12" refX="9" refY="6" markerWidth="7" markerHeight="7" orient="auto-start-reverse"><path d="M1 1 L11 6 L1 11 z" fill="#42c8ff"/></marker><marker id="headw" viewBox="0 0 12 12" refX="9" refY="6" markerWidth="7" markerHeight="7" orient="auto-start-reverse"><path d="M1 1 L11 6 L1 11 z" fill="#8faabd"/></marker></defs>
  <rect x="0" y="0" width="1100" height="720" rx="44" fill="url(#bg)"/>
  <text x="56" y="78" fill="#f5f7fa" font-family="-apple-system,'SF Pro Text','Apple SD Gothic Neo',sans-serif" font-size="34" font-weight="700" text-anchor="start">visionOS App 템플릿 선택</text><text x="56" y="116" fill="#8faabd" font-family="-apple-system,'SF Pro Text','Apple SD Gothic Neo',sans-serif" font-size="20" font-weight="400" text-anchor="start">Xcode &gt; Create New Project</text><rect x="854" y="46" width="190" height="40" rx="20" fill="none" stroke="#ff6a3d" stroke-width="2" stroke-dasharray="8 6"/><text x="949.0" y="73" fill="#ff6a3d" font-family="-apple-system,'SF Pro Text','Apple SD Gothic Neo',sans-serif" font-size="18" font-weight="600" text-anchor="middle">실제 캡처 예정</text><rect x="72" y="168" width="956" height="470" rx="20" fill="#0b1120" stroke="#3a4a63" stroke-width="2"/><path d="M72 224 h956" stroke="#3a4a63" stroke-width="2"/><circle cx="100" cy="196" r="8" fill="#ff5f57"/><circle cx="124" cy="196" r="8" fill="#febc2e"/><circle cx="148" cy="196" r="8" fill="#28c840"/><text x="550.0" y="204" fill="#8faabd" font-family="-apple-system,'SF Pro Text','Apple SD Gothic Neo',sans-serif" font-size="19" font-weight="600" text-anchor="middle">Choose a template for your new project</text><rect x="108" y="246" width="196" height="42" rx="10" fill="none" stroke="#3a4a63" stroke-width="2"/><text x="206.0" y="274" fill="#8faabd" font-family="-apple-system,'SF Pro Text','Apple SD Gothic Neo',sans-serif" font-size="18" font-weight="400" text-anchor="middle">multiplatform</text><rect x="318" y="246" width="76" height="42" rx="10" fill="none" stroke="#3a4a63" stroke-width="2"/><text x="356.0" y="274" fill="#8faabd" font-family="-apple-system,'SF Pro Text','Apple SD Gothic Neo',sans-serif" font-size="18" font-weight="400" text-anchor="middle">iOS</text><rect x="408" y="246" width="100" height="42" rx="10" fill="none" stroke="#3a4a63" stroke-width="2"/><text x="458.0" y="274" fill="#8faabd" font-family="-apple-system,'SF Pro Text','Apple SD Gothic Neo',sans-serif" font-size="18" font-weight="400" text-anchor="middle">macOS</text><rect x="522" y="246" width="136" height="42" rx="10" fill="#1677ff"/><text x="590.0" y="274" fill="#f5f7fa" font-family="-apple-system,'SF Pro Text','Apple SD Gothic Neo',sans-serif" font-size="18" font-weight="650" text-anchor="middle">visionOS</text><rect x="672" y="246" width="124" height="42" rx="10" fill="none" stroke="#3a4a63" stroke-width="2"/><text x="734.0" y="274" fill="#8faabd" font-family="-apple-system,'SF Pro Text','Apple SD Gothic Neo',sans-serif" font-size="18" font-weight="400" text-anchor="middle">watchOS</text><rect x="810" y="246" width="88" height="42" rx="10" fill="none" stroke="#3a4a63" stroke-width="2"/><text x="854.0" y="274" fill="#8faabd" font-family="-apple-system,'SF Pro Text','Apple SD Gothic Neo',sans-serif" font-size="18" font-weight="400" text-anchor="middle">tvOS</text><path d="M108 314 h884" stroke="#3a4a63" stroke-width="2"/><rect x="132" y="356" width="176" height="176" rx="18" fill="#131b2b" stroke="#1677ff" stroke-width="4"/><rect x="184" y="392" width="72" height="72" rx="16" fill="#1677ff" opacity="0.9"/><text x="220" y="502" fill="#f5f7fa" font-family="-apple-system,'SF Pro Text','Apple SD Gothic Neo',sans-serif" font-size="19" font-weight="650" text-anchor="middle">App</text><rect x="340" y="356" width="176" height="176" rx="18" fill="#131b2b" stroke="#3a4a63" stroke-width="2"/><rect x="392" y="392" width="72" height="72" rx="16" fill="#3a4a63" opacity="0.3"/><text x="428" y="502" fill="#8faabd" font-family="-apple-system,'SF Pro Text','Apple SD Gothic Neo',sans-serif" font-size="19" font-weight="400" text-anchor="middle">Window</text><rect x="548" y="356" width="176" height="176" rx="18" fill="#131b2b" stroke="#3a4a63" stroke-width="2"/><rect x="600" y="392" width="72" height="72" rx="16" fill="#3a4a63" opacity="0.3"/><text x="636" y="502" fill="#8faabd" font-family="-apple-system,'SF Pro Text','Apple SD Gothic Neo',sans-serif" font-size="19" font-weight="400" text-anchor="middle">Immersive Space</text><rect x="756" y="356" width="176" height="176" rx="18" fill="#131b2b" stroke="#3a4a63" stroke-width="2"/><rect x="808" y="392" width="72" height="72" rx="16" fill="#3a4a63" opacity="0.3"/><text x="844" y="502" fill="#8faabd" font-family="-apple-system,'SF Pro Text','Apple SD Gothic Neo',sans-serif" font-size="19" font-weight="400" text-anchor="middle">Game</text><text x="132" y="578" fill="#d7e3eb" font-family="-apple-system,'SF Pro Text','Apple SD Gothic Neo',sans-serif" font-size="20" font-weight="400" text-anchor="start">visionOS 탭을 고른 다음 App 템플릿을 선택하고 Next를 누릅니다.</text>
</svg>
